<svg xmlns="http://www.w3.org/2000/svg" width="1600" height="1000" viewBox="0 0 1600 1000">
  <defs>
    <linearGradient id="bg" x1="0" y1="0" x2="1" y2="1">
      <stop offset="0" stop-color="#0b1220"/>
      <stop offset="1" stop-color="#050505"/>
    </linearGradient>
    <linearGradient id="glass" x1="0" y1="0" x2="0" y2="1">
      <stop offset="0" stop-color="#ffffff" stop-opacity="0.10"/>
      <stop offset="1" stop-color="#ffffff" stop-opacity="0.03"/>
    </linearGradient>
    <linearGradient id="accent" x1="0" y1="0" x2="1" y2="0">
      <stop offset="0" stop-color="#3b82f6"/>
      <stop offset="1" stop-color="#34d399"/>
    </linearGradient>
    <filter id="shadow" x="-20%" y="-20%" width="140%" height="140%">
      <feDropShadow dx="0" dy="18" stdDeviation="18" flood-color="#000000" flood-opacity="0.55"/>
    </filter>
    <filter id="glow" x="-30%" y="-30%" width="160%" height="160%">
      <feGaussianBlur stdDeviation="30" result="blur"/>
      <feColorMatrix in="blur" type="matrix"
        values="1 0 0 0 0
                0 1 0 0 0
                0 0 1 0 0
                0 0 0 0.7 0"/>
    </filter>
  </defs>

  <rect width="1600" height="1000" fill="url(#bg)"/>

  <circle cx="420" cy="280" r="260" fill="#3b82f6" opacity="0.18" filter="url(#glow)"/>
  <circle cx="1240" cy="760" r="320" fill="#34d399" opacity="0.14" filter="url(#glow)"/>

  <!-- Window -->
  <g filter="url(#shadow)">
    <rect x="180" y="140" width="1240" height="720" rx="28" fill="url(#glass)" stroke="#ffffff" stroke-opacity="0.10"/>
    <!-- Title bar -->
    <rect x="180" y="140" width="1240" height="62" rx="28" fill="#0a0a0a" opacity="0.55"/>
    <circle cx="224" cy="171" r="8" fill="#ff5f56"/>
    <circle cx="248" cy="171" r="8" fill="#ffbd2e"/>
    <circle cx="272" cy="171" r="8" fill="#27c93f"/>
    <rect x="318" y="162" width="520" height="18" rx="9" fill="#ffffff" opacity="0.10"/>

    <!-- Sidebar -->
    <rect x="206" y="220" width="220" height="610" rx="18" fill="#ffffff" opacity="0.04" stroke="#ffffff" stroke-opacity="0.07"/>
    <rect x="232" y="250" width="168" height="14" rx="7" fill="#ffffff" opacity="0.22"/>
    <rect x="232" y="286" width="132" height="12" rx="6" fill="#ffffff" opacity="0.14"/>
    <rect x="232" y="316" width="150" height="12" rx="6" fill="#ffffff" opacity="0.14"/>
    <rect x="232" y="346" width="114" height="12" rx="6" fill="#ffffff" opacity="0.14"/>

    <rect x="232" y="410" width="168" height="42" rx="12" fill="#ffffff" opacity="0.07" stroke="#ffffff" stroke-opacity="0.08"/>
    <rect x="246" y="426" width="96" height="10" rx="5" fill="#ffffff" opacity="0.25"/>
    <rect x="246" y="442" width="70" height="8" rx="4" fill="#ffffff" opacity="0.16"/>

    <!-- Main list -->
    <rect x="454" y="220" width="940" height="610" rx="18" fill="#ffffff" opacity="0.03" stroke="#ffffff" stroke-opacity="0.07"/>
    <rect x="486" y="250" width="520" height="18" rx="9" fill="#ffffff" opacity="0.20"/>
    <rect x="1018" y="250" width="340" height="18" rx="9" fill="#ffffff" opacity="0.08"/>

    <!-- Items -->
    <g opacity="0.95">
      <rect x="486" y="298" width="872" height="80" rx="16" fill="#ffffff" opacity="0.04" stroke="#ffffff" stroke-opacity="0.07"/>
      <rect x="512" y="322" width="420" height="14" rx="7" fill="#ffffff" opacity="0.24"/>
      <rect x="512" y="348" width="300" height="10" rx="5" fill="#ffffff" opacity="0.14"/>
      <rect x="1236" y="322" width="96" height="18" rx="9" fill="url(#accent)" opacity="0.85"/>

      <rect x="486" y="396" width="872" height="80" rx="16" fill="#ffffff" opacity="0.04" stroke="#ffffff" stroke-opacity="0.07"/>
      <rect x="512" y="420" width="380" height="14" rx="7" fill="#ffffff" opacity="0.24"/>
      <rect x="512" y="446" width="340" height="10" rx="5" fill="#ffffff" opacity="0.14"/>
      <rect x="1210" y="420" width="122" height="18" rx="9" fill="#ffffff" opacity="0.10"/>

      <rect x="486" y="494" width="872" height="80" rx="16" fill="#ffffff" opacity="0.04" stroke="#ffffff" stroke-opacity="0.07"/>
      <rect x="512" y="518" width="460" height="14" rx="7" fill="#ffffff" opacity="0.24"/>
      <rect x="512" y="544" width="280" height="10" rx="5" fill="#ffffff" opacity="0.14"/>
      <rect x="1206" y="518" width="126" height="18" rx="9" fill="#ffffff" opacity="0.10"/>

      <rect x="486" y="592" width="872" height="80" rx="16" fill="#ffffff" opacity="0.04" stroke="#ffffff" stroke-opacity="0.07"/>
      <rect x="512" y="616" width="410" height="14" rx="7" fill="#ffffff" opacity="0.24"/>
      <rect x="512" y="642" width="260" height="10" rx="5" fill="#ffffff" opacity="0.14"/>
      <rect x="1226" y="616" width="106" height="18" rx="9" fill="#ffffff" opacity="0.10"/>
    </g>
  </g>

  <!-- Caption -->
  <g>
    <rect x="180" y="892" width="1240" height="64" rx="18" fill="#000000" opacity="0.25"/>
    <text x="220" y="934" fill="#ffffff" opacity="0.70"
      font-family="ui-sans-serif, system-ui, -apple-system, Segoe UI, Roboto, Helvetica, Arial"
      font-size="20">
      Paste for macOS (replace this placeholder with a real screenshot: public/product/macos.(png|jpg|webp))
    </text>
  </g>
</svg>

